<svg width="64" height="64" viewBox="0 0 64 64" fill="none" xmlns="http://www.w3.org/2000/svg">
<g clip-path="url(#clip0_73_147383)">
<rect x="8.36211" y="11.9081" width="3.27298" height="0.818245" rx="0.409123" fill="#60D9FF"/>
<g clip-path="url(#clip1_73_147383)">
<rect width="7.15965" height="2.04561" transform="translate(13.2716 11.2944)" fill="#219653"/>
</g>
<path d="M13.3739 13.7491V10.8853H13.1693V13.7491H13.3739Z" fill="black"/>
</g>
<g clip-path="url(#clip2_73_147383)">
<rect x="8.36211" y="14.7719" width="3.27298" height="0.818245" rx="0.409123" fill="#60D9FF"/>
<g clip-path="url(#clip3_73_147383)">
<rect width="9.20526" height="2.04561" transform="translate(13.2716 14.1583)" fill="#219653"/>
</g>
<path d="M13.3739 16.613V13.7491H13.1693V16.613H13.3739Z" fill="black"/>
</g>
<g clip-path="url(#clip4_73_147383)">
<rect x="8.36211" y="17.6358" width="3.27298" height="0.818245" rx="0.409123" fill="#60D9FF"/>
<g clip-path="url(#clip5_73_147383)">
<rect width="11.4554" height="2.04561" transform="translate(13.2716 17.0221)" fill="#219653"/>
</g>
<path d="M13.3739 19.4768V16.613H13.1693V19.4768H13.3739Z" fill="black"/>
</g>
<g clip-path="url(#clip6_73_147383)">
<rect x="8.36211" y="20.4997" width="3.27298" height="0.818245" rx="0.409123" fill="#60D9FF"/>
<g clip-path="url(#clip7_73_147383)">
<rect width="14.7284" height="2.04561" transform="translate(13.2716 19.886)" fill="#219653"/>
</g>
<path d="M13.3739 22.3407V19.4768H13.1693V22.3407H13.3739Z" fill="black"/>
</g>
<g clip-path="url(#clip8_73_147383)">
<rect x="8.36211" y="23.3635" width="3.27298" height="0.818245" rx="0.409123" fill="#60D9FF"/>
<g clip-path="url(#clip9_73_147383)">
<rect width="9.0007" height="2.04561" transform="translate(13.2716 22.7498)" fill="#219653"/>
</g>
<path d="M13.3739 25.2046V22.3407H13.1693V25.2046H13.3739Z" fill="black"/>
</g>
<g clip-path="url(#clip10_73_147383)">
<rect x="8.36211" y="26.2274" width="3.27298" height="0.818245" rx="0.409123" fill="#60D9FF"/>
<g clip-path="url(#clip11_73_147383)">
<rect width="3.47754" height="2.04561" transform="translate(13.2716 25.6137)" fill="#219653"/>
</g>
<path d="M13.3739 28.0684V25.2046H13.1693V28.0684H13.3739Z" fill="black"/>
</g>
<g clip-path="url(#clip12_73_147383)">
<rect x="36" y="12.0221" width="3.27298" height="0.818245" rx="0.409123" fill="#60D9FF"/>
<g clip-path="url(#clip13_73_147383)">
<rect width="7.15965" height="2.04561" transform="translate(40.9095 11.4084)" fill="#219653"/>
</g>
<path d="M41.0118 13.8632V10.9993H40.8072V13.8632H41.0118Z" fill="black"/>
</g>
<g clip-path="url(#clip14_73_147383)">
<rect x="36" y="14.8632" width="3.27298" height="0.818245" rx="0.409123" fill="#60D9FF"/>
<g clip-path="url(#clip15_73_147383)">
<rect width="15" height="2" transform="translate(40.9095 14.2723)" fill="#219653"/>
</g>
<path d="M41.0118 16.6814V13.8632H40.8072V16.6814H41.0118Z" fill="black"/>
</g>
<g clip-path="url(#clip16_73_147383)">
<rect x="36" y="17.6814" width="3.27298" height="0.818245" rx="0.409123" fill="#60D9FF"/>
<g clip-path="url(#clip17_73_147383)">
<rect width="8" height="2" transform="translate(40.9095 17.0905)" fill="#219653"/>
</g>
<path d="M41.0118 19.4997V16.6814H40.8072V19.4997H41.0118Z" fill="black"/>
</g>
<g clip-path="url(#clip18_73_147383)">
<rect x="36" y="20.4997" width="3.27298" height="0.818245" rx="0.409123" fill="#60D9FF"/>
<g clip-path="url(#clip19_73_147383)">
<rect width="9" height="2" transform="translate(40.9095 19.9088)" fill="#219653"/>
</g>
<path d="M41.0118 22.3179V19.4997H40.8072V22.3179H41.0118Z" fill="black"/>
</g>
<g clip-path="url(#clip20_73_147383)">
<rect x="36" y="23.3179" width="3.27298" height="0.818245" rx="0.409123" fill="#60D9FF"/>
<g clip-path="url(#clip21_73_147383)">
<rect width="12" height="2" transform="translate(40.9095 22.727)" fill="#219653"/>
</g>
<path d="M41.0118 25.1361V22.3179H40.8072V25.1361H41.0118Z" fill="black"/>
</g>
<g clip-path="url(#clip22_73_147383)">
<rect x="36" y="26.1361" width="3.27298" height="0.818245" rx="0.409123" fill="#60D9FF"/>
<g clip-path="url(#clip23_73_147383)">
<rect width="6" height="2" transform="translate(40.9095 25.5453)" fill="#219653"/>
</g>
<path d="M41.0118 27.9544V25.1361H40.8072V27.9544H41.0118Z" fill="black"/>
</g>
<g clip-path="url(#clip24_73_147383)">
<rect x="8.36211" y="37.1368" width="3.27298" height="0.818245" rx="0.409123" fill="#60D9FF"/>
<g clip-path="url(#clip25_73_147383)">
<rect width="7.15965" height="2.04561" transform="translate(13.2716 36.5232)" fill="#219653"/>
</g>
<path d="M13.3739 38.9779V36.114H13.1693V38.9779H13.3739Z" fill="black"/>
</g>
<g clip-path="url(#clip26_73_147383)">
<rect x="8.36211" y="39.9779" width="3.27298" height="0.818245" rx="0.409123" fill="#60D9FF"/>
<g clip-path="url(#clip27_73_147383)">
<rect width="8" height="2" transform="translate(13.2716 39.387)" fill="#219653"/>
</g>
<path d="M13.3739 41.7961V38.9779H13.1693V41.7961H13.3739Z" fill="black"/>
</g>
<g clip-path="url(#clip28_73_147383)">
<rect x="8.36211" y="42.7961" width="3.27298" height="0.818245" rx="0.409123" fill="#60D9FF"/>
<g clip-path="url(#clip29_73_147383)">
<rect width="6" height="2" transform="translate(13.2716 42.2053)" fill="#219653"/>
</g>
<path d="M13.3739 44.6144V41.7961H13.1693V44.6144H13.3739Z" fill="black"/>
</g>
<g clip-path="url(#clip30_73_147383)">
<rect x="8.36211" y="45.6144" width="3.27298" height="0.818245" rx="0.409123" fill="#60D9FF"/>
<g clip-path="url(#clip31_73_147383)">
<rect width="9" height="2" transform="translate(13.2716 45.0235)" fill="#219653"/>
</g>
<path d="M13.3739 47.4326V44.6144H13.1693V47.4326H13.3739Z" fill="black"/>
</g>
<g clip-path="url(#clip32_73_147383)">
<rect x="8.36211" y="48.4326" width="3.27298" height="0.818245" rx="0.409123" fill="#60D9FF"/>
<g clip-path="url(#clip33_73_147383)">
<rect width="5" height="2" transform="translate(13.2716 47.8418)" fill="#219653"/>
</g>
<path d="M13.3739 50.2509V47.4326H13.1693V50.2509H13.3739Z" fill="black"/>
</g>
<g clip-path="url(#clip34_73_147383)">
<rect x="8.36211" y="51.2509" width="3.27298" height="0.818245" rx="0.409123" fill="#60D9FF"/>
<g clip-path="url(#clip35_73_147383)">
<rect width="14" height="2" transform="translate(13.2716 50.66)" fill="#219653"/>
</g>
<path d="M13.3739 53.0691V50.2509H13.1693V53.0691H13.3739Z" fill="black"/>
</g>
<g clip-path="url(#clip36_73_147383)">
<rect x="36" y="37.0912" width="3.27298" height="0.818245" rx="0.409123" fill="#60D9FF"/>
<g clip-path="url(#clip37_73_147383)">
<rect width="7.15965" height="2.04561" transform="translate(40.9095 36.4775)" fill="#219653"/>
</g>
<path d="M41.0118 38.9323V36.0684H40.8072V38.9323H41.0118Z" fill="black"/>
</g>
<g clip-path="url(#clip38_73_147383)">
<rect x="36" y="39.9323" width="3.27298" height="0.818245" rx="0.409123" fill="#60D9FF"/>
<g clip-path="url(#clip39_73_147383)">
<rect width="3" height="2" transform="translate(40.9095 39.3414)" fill="#219653"/>
</g>
<path d="M41.0118 41.7505V38.9323H40.8072V41.7505H41.0118Z" fill="black"/>
</g>
<g clip-path="url(#clip40_73_147383)">
<rect x="36" y="42.7733" width="3.27298" height="0.818245" rx="0.409123" fill="#60D9FF"/>
<g clip-path="url(#clip41_73_147383)">
<rect width="11.4554" height="2.04561" transform="translate(40.9095 42.1596)" fill="#219653"/>
</g>
<path d="M41.0118 44.6144V41.7505H40.8072V44.6144H41.0118Z" fill="black"/>
</g>
<g clip-path="url(#clip42_73_147383)">
<rect x="36" y="45.6144" width="3.27298" height="0.818245" rx="0.409123" fill="#60D9FF"/>
<g clip-path="url(#clip43_73_147383)">
<rect width="8" height="2" transform="translate(40.9095 45.0235)" fill="#219653"/>
</g>
<path d="M41.0118 47.4326V44.6144H40.8072V47.4326H41.0118Z" fill="black"/>
</g>
<g clip-path="url(#clip44_73_147383)">
<rect x="36" y="48.4326" width="3.27298" height="0.818245" rx="0.409123" fill="#60D9FF"/>
<g clip-path="url(#clip45_73_147383)">
<rect width="13" height="2" transform="translate(40.9095 47.8418)" fill="#219653"/>
</g>
<path d="M41.0118 50.2509V47.4326H40.8072V50.2509H41.0118Z" fill="black"/>
</g>
<g clip-path="url(#clip46_73_147383)">
<rect x="36" y="51.2737" width="3.27298" height="0.818245" rx="0.409123" fill="#60D9FF"/>
<g clip-path="url(#clip47_73_147383)">
<rect width="3.47754" height="2.04561" transform="translate(40.9095 50.66)" fill="#219653"/>
</g>
<path d="M41.0118 53.1147V50.2509H40.8072V53.1147H41.0118Z" fill="black"/>
</g>
<defs>
<clipPath id="clip0_73_147383">
<rect width="19.6379" height="2.86386" fill="white" transform="translate(8.36211 10.8853)"/>
</clipPath>
<clipPath id="clip1_73_147383">
<path d="M13.2716 10.8853H28V13.7491H13.2716V10.8853Z" fill="white"/>
</clipPath>
<clipPath id="clip2_73_147383">
<rect width="19.6379" height="2.86386" fill="white" transform="translate(8.36211 13.7491)"/>
</clipPath>
<clipPath id="clip3_73_147383">
<path d="M13.2716 13.7491H28V16.613H13.2716V13.7491Z" fill="white"/>
</clipPath>
<clipPath id="clip4_73_147383">
<rect width="19.6379" height="2.86386" fill="white" transform="translate(8.36211 16.613)"/>
</clipPath>
<clipPath id="clip5_73_147383">
<path d="M13.2716 16.613H28V19.4768H13.2716V16.613Z" fill="white"/>
</clipPath>
<clipPath id="clip6_73_147383">
<rect width="19.6379" height="2.86386" fill="white" transform="translate(8.36211 19.4768)"/>
</clipPath>
<clipPath id="clip7_73_147383">
<path d="M13.2716 19.4768H28V22.3407H13.2716V19.4768Z" fill="white"/>
</clipPath>
<clipPath id="clip8_73_147383">
<rect width="19.6379" height="2.86386" fill="white" transform="translate(8.36211 22.3407)"/>
</clipPath>
<clipPath id="clip9_73_147383">
<path d="M13.2716 22.3407H28V25.2046H13.2716V22.3407Z" fill="white"/>
</clipPath>
<clipPath id="clip10_73_147383">
<rect width="19.6379" height="2.86386" fill="white" transform="translate(8.36211 25.2046)"/>
</clipPath>
<clipPath id="clip11_73_147383">
<path d="M13.2716 25.2046H28V28.0684H13.2716V25.2046Z" fill="white"/>
</clipPath>
<clipPath id="clip12_73_147383">
<rect width="19.6379" height="2.86386" fill="white" transform="translate(36 10.9993)"/>
</clipPath>
<clipPath id="clip13_73_147383">
<path d="M40.9095 10.9993H55.6379V13.8632H40.9095V10.9993Z" fill="white"/>
</clipPath>
<clipPath id="clip14_73_147383">
<rect width="19.6379" height="2.81825" fill="white" transform="translate(36 13.8632)"/>
</clipPath>
<clipPath id="clip15_73_147383">
<path d="M40.9095 13.8632H55.6379V16.6814H40.9095V13.8632Z" fill="white"/>
</clipPath>
<clipPath id="clip16_73_147383">
<rect width="19.6379" height="2.81825" fill="white" transform="translate(36 16.6814)"/>
</clipPath>
<clipPath id="clip17_73_147383">
<path d="M40.9095 16.6814H55.6379V19.4997H40.9095V16.6814Z" fill="white"/>
</clipPath>
<clipPath id="clip18_73_147383">
<rect width="19.6379" height="2.81825" fill="white" transform="translate(36 19.4997)"/>
</clipPath>
<clipPath id="clip19_73_147383">
<path d="M40.9095 19.4997H55.6379V22.3179H40.9095V19.4997Z" fill="white"/>
</clipPath>
<clipPath id="clip20_73_147383">
<rect width="19.6379" height="2.81825" fill="white" transform="translate(36 22.3179)"/>
</clipPath>
<clipPath id="clip21_73_147383">
<path d="M40.9095 22.3179H55.6379V25.1361H40.9095V22.3179Z" fill="white"/>
</clipPath>
<clipPath id="clip22_73_147383">
<rect width="19.6379" height="2.81825" fill="white" transform="translate(36 25.1361)"/>
</clipPath>
<clipPath id="clip23_73_147383">
<path d="M40.9095 25.1361H55.6379V27.9544H40.9095V25.1361Z" fill="white"/>
</clipPath>
<clipPath id="clip24_73_147383">
<rect width="19.6379" height="2.86386" fill="white" transform="translate(8.36211 36.114)"/>
</clipPath>
<clipPath id="clip25_73_147383">
<path d="M13.2716 36.114H28V38.9779H13.2716V36.114Z" fill="white"/>
</clipPath>
<clipPath id="clip26_73_147383">
<rect width="19.6379" height="2.81825" fill="white" transform="translate(8.36211 38.9779)"/>
</clipPath>
<clipPath id="clip27_73_147383">
<path d="M13.2716 38.9779H28V41.7961H13.2716V38.9779Z" fill="white"/>
</clipPath>
<clipPath id="clip28_73_147383">
<rect width="19.6379" height="2.81825" fill="white" transform="translate(8.36211 41.7961)"/>
</clipPath>
<clipPath id="clip29_73_147383">
<path d="M13.2716 41.7961H28V44.6144H13.2716V41.7961Z" fill="white"/>
</clipPath>
<clipPath id="clip30_73_147383">
<rect width="19.6379" height="2.81825" fill="white" transform="translate(8.36211 44.6144)"/>
</clipPath>
<clipPath id="clip31_73_147383">
<path d="M13.2716 44.6144H28V47.4326H13.2716V44.6144Z" fill="white"/>
</clipPath>
<clipPath id="clip32_73_147383">
<rect width="19.6379" height="2.81825" fill="white" transform="translate(8.36211 47.4326)"/>
</clipPath>
<clipPath id="clip33_73_147383">
<path d="M13.2716 47.4326H28V50.2509H13.2716V47.4326Z" fill="white"/>
</clipPath>
<clipPath id="clip34_73_147383">
<rect width="19.6379" height="2.81825" fill="white" transform="translate(8.36211 50.2509)"/>
</clipPath>
<clipPath id="clip35_73_147383">
<path d="M13.2716 50.2509H28V53.0691H13.2716V50.2509Z" fill="white"/>
</clipPath>
<clipPath id="clip36_73_147383">
<rect width="19.6379" height="2.86386" fill="white" transform="translate(36 36.0684)"/>
</clipPath>
<clipPath id="clip37_73_147383">
<path d="M40.9095 36.0684H55.6379V38.9323H40.9095V36.0684Z" fill="white"/>
</clipPath>
<clipPath id="clip38_73_147383">
<rect width="19.6379" height="2.81825" fill="white" transform="translate(36 38.9323)"/>
</clipPath>
<clipPath id="clip39_73_147383">
<path d="M40.9095 38.9323H55.6379V41.7505H40.9095V38.9323Z" fill="white"/>
</clipPath>
<clipPath id="clip40_73_147383">
<rect width="19.6379" height="2.86386" fill="white" transform="translate(36 41.7505)"/>
</clipPath>
<clipPath id="clip41_73_147383">
<path d="M40.9095 41.7505H55.6379V44.6144H40.9095V41.7505Z" fill="white"/>
</clipPath>
<clipPath id="clip42_73_147383">
<rect width="19.6379" height="2.81825" fill="white" transform="translate(36 44.6144)"/>
</clipPath>
<clipPath id="clip43_73_147383">
<path d="M40.9095 44.6144H55.6379V47.4326H40.9095V44.6144Z" fill="white"/>
</clipPath>
<clipPath id="clip44_73_147383">
<rect width="19.6379" height="2.81825" fill="white" transform="translate(36 47.4326)"/>
</clipPath>
<clipPath id="clip45_73_147383">
<path d="M40.9095 47.4326H55.6379V50.2509H40.9095V47.4326Z" fill="white"/>
</clipPath>
<clipPath id="clip46_73_147383">
<rect width="19.6379" height="2.86386" fill="white" transform="translate(36 50.2509)"/>
</clipPath>
<clipPath id="clip47_73_147383">
<path d="M40.9095 50.2509H55.6379V53.1147H40.9095V50.2509Z" fill="white"/>
</clipPath>
</defs>
</svg>
