<svg width="64" height="64" viewBox="0 0 64 64" fill="none" xmlns="http://www.w3.org/2000/svg">
<g clip-path="url(#clip0_32_589)">
<rect x="8" y="13.5" width="8" height="2" rx="1" fill="#60D9FF"/>
<rect width="17.5" height="5" transform="translate(20 12)" fill="#2F80ED"/>
<path d="M20.25 18V11H19.75V18H20.25Z" fill="black"/>
</g>
<g clip-path="url(#clip1_32_589)">
<rect x="8" y="20.5" width="8" height="2" rx="1" fill="#60D9FF"/>
<rect width="22.5" height="5" transform="translate(20 19)" fill="#2F80ED"/>
<path d="M20.25 25V18H19.75V25H20.25Z" fill="black"/>
</g>
<g clip-path="url(#clip2_32_589)">
<rect x="8" y="27.5" width="8" height="2" rx="1" fill="#60D9FF"/>
<rect width="28" height="5" transform="translate(20 26)" fill="#2F80ED"/>
<path d="M20.25 32V25H19.75V32H20.25Z" fill="black"/>
</g>
<g clip-path="url(#clip3_32_589)">
<rect x="8" y="34.5" width="8" height="2" rx="1" fill="#60D9FF"/>
<rect width="36" height="5" transform="translate(20 33)" fill="#2F80ED"/>
<path d="M20.25 39V32H19.75V39H20.25Z" fill="black"/>
</g>
<g clip-path="url(#clip4_32_589)">
<rect x="8" y="41.5" width="8" height="2" rx="1" fill="#60D9FF"/>
<rect width="22" height="5" transform="translate(20 40)" fill="#2F80ED"/>
<path d="M20.25 46V39H19.75V46H20.25Z" fill="black"/>
</g>
<g clip-path="url(#clip5_32_589)">
<rect x="8" y="48.5" width="8" height="2" rx="1" fill="#60D9FF"/>
<rect width="8.5" height="5" transform="translate(20 47)" fill="#2F80ED"/>
<path d="M20.25 53V46H19.75V53H20.25Z" fill="black"/>
</g>
<defs>
<clipPath id="clip0_32_589">
<rect width="48" height="7" fill="white" transform="translate(8 11)"/>
</clipPath>
<clipPath id="clip1_32_589">
<rect width="48" height="7" fill="white" transform="translate(8 18)"/>
</clipPath>
<clipPath id="clip2_32_589">
<rect width="48" height="7" fill="white" transform="translate(8 25)"/>
</clipPath>
<clipPath id="clip3_32_589">
<rect width="48" height="7" fill="white" transform="translate(8 32)"/>
</clipPath>
<clipPath id="clip4_32_589">
<rect width="48" height="7" fill="white" transform="translate(8 39)"/>
</clipPath>
<clipPath id="clip5_32_589">
<rect width="48" height="7" fill="white" transform="translate(8 46)"/>
</clipPath>
</defs>
</svg>
