<svg width="64" height="64" viewBox="0 0 64 64" fill="none" xmlns="http://www.w3.org/2000/svg">
<line x1="8" y1="45.5" x2="56" y2="45.5" stroke="black"/>
<rect x="8" y="48" width="8" height="2" rx="1" fill="#60D9FF"/>
<rect x="48" y="48" width="8" height="2" rx="1" fill="#60D9FF"/>
<rect x="34.6667" y="48" width="8" height="2" rx="1" fill="#60D9FF"/>
<rect x="21.3333" y="48" width="8" height="2" rx="1" fill="#60D9FF"/>
<path d="M8 25.6003L21.4486 24.3704C23.108 24.2186 24.7734 24.5889 26.2123 25.4294L37.167 31.8285C38.9823 32.8889 41.1421 33.1921 43.1792 32.6726L56 29.4028" stroke="#ED2F2F"/>
<path d="M8 34.0202L19.9051 36.5971C22.4698 37.1522 25.1437 36.4143 27.0607 34.6223L38.7197 23.7235C39.5632 22.935 40.5675 22.3384 41.6634 21.9748L56 17.2177" stroke="#ED2F2F"/>
</svg>
