<svg width="64" height="64" viewBox="0 0 64 64" fill="none" xmlns="http://www.w3.org/2000/svg">
<line x1="6" y1="27.75" x2="30" y2="27.75" stroke="black" stroke-width="0.5"/>
<rect x="6" y="29" width="4" height="1" rx="0.5" fill="#60D9FF"/>
<rect x="26" y="29" width="4" height="1" rx="0.5" fill="#60D9FF"/>
<rect x="19.3333" y="29" width="4" height="1" rx="0.5" fill="#60D9FF"/>
<rect x="12.6667" y="29" width="4" height="1" rx="0.5" fill="#60D9FF"/>
<path d="M6 17.8001L12.7243 17.1852C13.554 17.1093 14.3867 17.2944 15.1061 17.7147L20.5835 20.9143C21.4911 21.4445 22.571 21.5961 23.5896 21.3363L30 19.7014" stroke="#ED2F8A" stroke-width="0.5"/>
<path d="M6 22.0101L11.9526 23.2985C13.2349 23.5761 14.5719 23.2071 15.5303 22.3112L21.3599 16.8618C21.7816 16.4675 22.2837 16.1692 22.8317 15.9874L30 13.6089" stroke="#ED2F8A" stroke-width="0.5"/>
<line x1="34" y1="27.75" x2="58" y2="27.75" stroke="black" stroke-width="0.5"/>
<rect x="34" y="29" width="4" height="1" rx="0.5" fill="#60D9FF"/>
<rect x="54" y="29" width="4" height="1" rx="0.5" fill="#60D9FF"/>
<rect x="47.3333" y="29" width="4" height="1" rx="0.5" fill="#60D9FF"/>
<rect x="40.6667" y="29" width="4" height="1" rx="0.5" fill="#60D9FF"/>
<path d="M34 17.8001L41.6357 17.1019C41.8781 17.0797 42.1219 17.0797 42.3643 17.1019L49.7164 17.7742C49.9052 17.7915 50.0926 17.8221 50.277 17.866L58 19.7014" stroke="#ED2F8A" stroke-width="0.5"/>
<path d="M58 22.0101L52.0474 23.2985C50.7651 23.5761 49.4281 23.2071 48.4697 22.3112L42.6401 16.8618C42.2184 16.4675 41.7163 16.1692 41.1683 15.9874L34 13.6089" stroke="#ED2F8A" stroke-width="0.5"/>
<line x1="6" y1="49.75" x2="30" y2="49.75" stroke="black" stroke-width="0.5"/>
<rect x="6" y="51" width="4" height="1" rx="0.5" fill="#60D9FF"/>
<rect x="26" y="51" width="4" height="1" rx="0.5" fill="#60D9FF"/>
<rect x="19.3333" y="51" width="4" height="1" rx="0.5" fill="#60D9FF"/>
<rect x="12.6667" y="51" width="4" height="1" rx="0.5" fill="#60D9FF"/>
<path d="M6 39.8001L13.3921 39.1241C13.795 39.0873 14.1901 38.9895 14.5637 38.8341L19.8991 36.6154C21.2017 36.0737 22.6933 36.2582 23.8247 37.101L30 41.7014" stroke="#ED2F8A" stroke-width="0.5"/>
<path d="M6 44.0101L13.7101 45.6789C13.9031 45.7207 14.0989 45.7482 14.296 45.761L21.221 46.2125C21.7355 46.2461 22.2516 46.1799 22.741 46.0175L30 43.6089" stroke="#ED2F8A" stroke-width="0.5"/>
<line x1="34" y1="49.75" x2="58" y2="49.75" stroke="black" stroke-width="0.5"/>
<rect x="34" y="51" width="4" height="1" rx="0.5" fill="#60D9FF"/>
<rect x="54" y="51" width="4" height="1" rx="0.5" fill="#60D9FF"/>
<rect x="47.3333" y="51" width="4" height="1" rx="0.5" fill="#60D9FF"/>
<rect x="40.6667" y="51" width="4" height="1" rx="0.5" fill="#60D9FF"/>
<path d="M58 39.8001L51.2757 39.1852C50.446 39.1093 49.6133 39.2944 48.8939 39.7147L43.4165 42.9143C42.5089 43.4445 41.429 43.5961 40.4104 43.3363L34 41.7014" stroke="#ED2F8A" stroke-width="0.5"/>
<path d="M58 44.0101L50.5368 45.6255C50.1806 45.7026 49.8156 45.7307 49.4518 45.7089L42 45.2633L34 45.6089" stroke="#ED2F8A" stroke-width="0.5"/>
</svg>
